<?xml version="1.0" encoding="UTF-8" standalone="no"?>
<!-- Created with Inkscape (http://www.inkscape.org/) -->

<svg
   xmlns:dc="http://purl.org/dc/elements/1.1/"
   xmlns:cc="http://creativecommons.org/ns#"
   xmlns:rdf="http://www.w3.org/1999/02/22-rdf-syntax-ns#"
   xmlns:svg="http://www.w3.org/2000/svg"
   xmlns="http://www.w3.org/2000/svg"
   xmlns:sodipodi="http://sodipodi.sourceforge.net/DTD/sodipodi-0.dtd"
   xmlns:inkscape="http://www.inkscape.org/namespaces/inkscape"
   width="13.055486mm"
   height="13.340176mm"
   viewBox="0 0 13.055486 13.340176"
   version="1.1"
   id="svg527"
   inkscape:version="0.92.4 (5da689c313, 2019-01-14)"
   sodipodi:docname="domek.svg">
  <defs
     id="defs521">
    <clipPath
       id="clipPath3294"
       clipPathUnits="userSpaceOnUse">
      <path
         inkscape:connector-curvature="0"
         id="path3292"
         d="M 129.971,162 H 472.747 V 572.5 H 129.971 Z" />
    </clipPath>
    <clipPath
       id="clipPath3342"
       clipPathUnits="userSpaceOnUse">
      <path
         inkscape:connector-curvature="0"
         id="path3340"
         d="M 129.971,162 H 472.747 V 572.5 H 129.971 Z" />
    </clipPath>
    <clipPath
       id="clipPath3362"
       clipPathUnits="userSpaceOnUse">
      <path
         inkscape:connector-curvature="0"
         id="path3360"
         d="M 129.971,162 H 472.747 V 572.5 H 129.971 Z" />
    </clipPath>
    <clipPath
       id="clipPath3382"
       clipPathUnits="userSpaceOnUse">
      <path
         inkscape:connector-curvature="0"
         id="path3380"
         d="M 129.971,162 H 472.747 V 572.5 H 129.971 Z" />
    </clipPath>
    <clipPath
       id="clipPath3398"
       clipPathUnits="userSpaceOnUse">
      <path
         inkscape:connector-curvature="0"
         id="path3396"
         d="M 129.971,162 H 472.747 V 572.5 H 129.971 Z" />
    </clipPath>
    <clipPath
       id="clipPath3414"
       clipPathUnits="userSpaceOnUse">
      <path
         inkscape:connector-curvature="0"
         id="path3412"
         d="M 129.971,162 H 472.747 V 572.5 H 129.971 Z" />
    </clipPath>
    <clipPath
       id="clipPath3438"
       clipPathUnits="userSpaceOnUse">
      <path
         inkscape:connector-curvature="0"
         id="path3436"
         d="M 129.971,162 H 472.747 V 572.5 H 129.971 Z" />
    </clipPath>
  </defs>
  <sodipodi:namedview
     id="base"
     pagecolor="#ffffff"
     bordercolor="#666666"
     borderopacity="1.0"
     inkscape:pageopacity="0.0"
     inkscape:pageshadow="2"
     inkscape:zoom="1.979899"
     inkscape:cx="-83.532913"
     inkscape:cy="-23.031945"
     inkscape:document-units="mm"
     inkscape:current-layer="g3651"
     showgrid="false"
     inkscape:window-width="1366"
     inkscape:window-height="715"
     inkscape:window-x="-8"
     inkscape:window-y="408"
     inkscape:window-maximized="1" />
  <metadata
     id="metadata524">
    <rdf:RDF>
      <cc:Work
         rdf:about="">
        <dc:format>image/svg+xml</dc:format>
        <dc:type
           rdf:resource="http://purl.org/dc/dcmitype/StillImage" />
        <dc:title></dc:title>
      </cc:Work>
    </rdf:RDF>
  </metadata>
  <g
     inkscape:label="Layer 1"
     inkscape:groupmode="layer"
     id="layer1"
     transform="translate(-138.88008,-151.31646)">
    <g
       style="display:inline"
       transform="matrix(0.10659271,0,0,-0.10659271,113.34388,206.93547)"
       inkscape:label="księga znaku inspektoria"
       id="g3274">
      <g
         id="g3651">
        <path
           inkscape:connector-curvature="0"
           id="path3330"
           style="fill:#ffffff;stroke:none;stroke-width:1.13385832;stroke-linecap:butt;stroke-linejoin:miter;stroke-miterlimit:10;stroke-dasharray:none;stroke-opacity:1"
           d="m 188.8512,557.416 h 233.126 V 263.26 h -233.126 z" />
        <g
           clip-path="url(#clipPath3294)"
           id="g3290">
          <g
             transform="translate(293.024,468.8831)"
             id="g3296">
            <path
               inkscape:connector-curvature="0"
               id="path3298"
               style="fill:#e31f2e;fill-opacity:1;fill-rule:evenodd;stroke:none"
               d="m 0,0 c 0.008,0.006 0.028,0.016 0.028,0.024 0,0.01 -0.012,0.02 -0.02,0.03 C -0.002,0.046 -0.018,0.04 -0.02,0.03 -0.02,0.02 -0.008,0.01 0,0 m -14.928,-34.702 c -0.006,-0.156 -0.016,-0.316 -0.016,-0.474 0,-7.324 0,-14.65 0.002,-21.976 0,-0.214 0.026,-0.428 0.042,-0.644 -0.098,-0.162 -0.054,-0.34 -0.054,-0.51 0,-4.488 -0.004,-8.978 0.01,-13.464 0.002,-0.394 -0.11,-0.474 -0.486,-0.472 -4.66,0.014 -9.322,0.014 -13.984,-0.002 -0.41,-0.002 -0.528,0.088 -0.526,0.516 0.014,9.104 0.01,18.212 0.01,27.318 0,0.172 -0.01,0.346 -0.016,0.52 0.006,0.07 0.016,0.142 0.016,0.214 v 13.574 c 0,0.08 0.036,0.172 -0.034,0.24 -0.03,-0.006 -0.062,-0.004 -0.076,-0.018 -1.8,-1.8 -3.6,-3.596 -5.398,-5.394 -2.398,-2.376 -4.796,-4.746 -7.18,-7.136 -0.286,-0.286 -0.432,-0.318 -0.738,-0.01 -3.124,3.14 -6.268,6.266 -9.406,9.398 -0.254,0.252 -0.69,0.47 -0.694,0.792 -0.002,0.322 0.444,0.526 0.698,0.78 8.842,8.816 17.688,17.626 26.532,26.44 1.578,1.576 3.148,3.158 4.722,4.738 1.626,1.61 3.25,3.216 4.872,4.828 4.34,4.322 8.722,8.604 13.006,12.984 3.552,3.628 7.228,7.132 10.79,10.75 0.27,0.272 0.39,0.256 0.656,-0.002 8.504,-8.392 17.018,-16.772 25.532,-25.154 0.102,-0.098 0.214,-0.184 0.324,-0.278 0.106,-0.118 0.204,-0.242 0.316,-0.352 6.298,-6.2 12.59,-12.396 18.882,-18.596 5.308,-5.218 10.61,-10.444 15.926,-15.652 0.308,-0.302 0.292,-0.45 -0.008,-0.732 -0.92,-0.862 -1.808,-1.754 -2.706,-2.638 -2.434,-2.398 -4.874,-4.792 -7.298,-7.2 -0.242,-0.236 -0.382,-0.248 -0.612,0 -0.364,0.394 -0.762,0.75 -1.144,1.126 -3.986,3.92 -7.97,7.842 -11.954,11.762 -0.094,0.09 -0.152,0.254 -0.344,0.218 v -0.484 -22.938 c 0,-1.03 0.004,-2.058 0.008,-3.084 -0.004,-5.244 -0.012,-10.486 0.006,-15.726 0.002,-0.442 -0.116,-0.536 -0.544,-0.534 -4.59,0.016 -9.178,0.016 -13.77,0.002 -0.382,0 -0.5,0.074 -0.5,0.486 0.016,6.85 0.01,13.696 0.01,20.544 0,0.172 -0.008,0.348 -0.01,0.524 0.002,0.084 0.01,0.172 0.01,0.256 0,11.758 0,23.516 0.008,35.272 0,0.276 -0.1,0.454 -0.286,0.636 -2.678,2.628 -5.346,5.264 -8.022,7.888 -0.898,0.886 -1.762,1.8 -2.71,2.63 -1.306,1.364 -2.67,2.67 -4.024,3.986 -0.014,0.012 -0.05,-0.002 -0.098,-0.008 v -6 C 14.808,-5.902 14.8,-6.046 14.8,-6.192 c -0.002,-13.462 -0.002,-26.926 -0.002,-40.386 0,-0.202 0.006,-0.404 0.01,-0.608 -0.006,-0.174 -0.016,-0.348 -0.016,-0.52 0,-7.974 -0.002,-15.95 0.008,-23.926 0.002,-0.44 -0.098,-0.55 -0.542,-0.548 -4.574,0.016 -9.148,0.016 -13.722,0 -0.434,-0.004 -0.508,0.122 -0.508,0.528 0.012,8.986 0.01,17.976 0.01,26.966 0,0.172 -0.01,0.346 -0.014,0.52 0.004,0.116 0.016,0.23 0.016,0.346 v 28.918 c 0,0.132 -0.016,0.26 -0.02,0.39 0.004,0.116 0.016,0.23 0.016,0.346 0,4.546 0.002,9.092 0,13.634 -0.004,0.156 0.074,0.386 -0.06,0.446 -0.18,0.082 -0.272,-0.152 -0.39,-0.266 -4.748,-4.726 -9.494,-9.458 -14.248,-14.184 -0.216,-0.216 -0.288,-0.434 -0.288,-0.728 0.008,-2.372 0.004,-4.746 0.006,-7.122 0.002,-2.244 0.01,-4.486 0.014,-6.73 -0.01,-0.808 -0.024,-1.614 -0.024,-2.424 0.004,-1.054 0.016,-2.104 0.026,-3.162" />
          </g>
          <g
             transform="translate(300.9282,498.6252)"
             id="g3300">
            <path
               inkscape:connector-curvature="0"
               id="path3302"
               style="fill:#e31f2e;fill-opacity:1;fill-rule:evenodd;stroke:none"
               d="M 0,0 C -6.434,0.058 -11.58,5.264 -11.526,11.658 -11.47,18.086 -6.244,23.238 0.15,23.164 6.588,23.09 11.678,17.868 11.616,11.4 11.55,5.11 6.288,-0.058 0,0" />
          </g>
          <g
             transform="translate(270.184,470.1252)"
             id="g3304">
            <path
               inkscape:connector-curvature="0"
               id="path3306"
               style="fill:#e31f2e;fill-opacity:1;fill-rule:evenodd;stroke:none"
               d="m 0,0 c -1.734,-0.832 -3.55,-1.284 -5.488,-1.256 -5.242,0.064 -9.902,3.818 -11.074,8.934 -0.264,1.152 -0.316,2.316 -0.274,3.492 0.438,5.4 4.41,9.718 9.742,10.592 C -0.882,22.778 5.128,18.456 6.124,12.266 6.91,7.364 4.7,2.71 0.41,0.238 0.274,0.16 0.136,0.078 0,0" />
          </g>
          <g
             transform="translate(347.727,479.4728)"
             id="g3308">
            <path
               inkscape:connector-curvature="0"
               id="path3310"
               style="fill:#e31f2e;fill-opacity:1;fill-rule:evenodd;stroke:none"
               d="m 0,0 c -0.128,-1.106 -0.27,-2.206 -0.68,-3.25 -1.692,-4.346 -4.83,-6.958 -9.452,-7.596 -3.794,-0.524 -7.064,0.708 -9.774,3.414 -0.05,0.054 -0.11,0.09 -0.164,0.136 -1.264,1.444 -2.204,3.062 -2.708,4.928 -1.754,6.526 2.512,13.218 9.176,14.374 6.556,1.138 12.638,-3.35 13.504,-9.968 C -0.008,1.362 0.006,0.68 0,0" />
          </g>
        </g>
      </g>
    </g>
  </g>
</svg>
